# xmcd
#
# Track frame offsets:
#	150
#	17282
#	37578
#	50025
#	66516
#	89273
#	115551
#	125924
#	138064
#	157508
#	175925
#	194082
#
# Disc length: 2737 seconds
#
# Revision: 1
# Processed by: cddbd v1.5.1PL0 Copyright (c) Steve Scherf et al.
# Submitted via: CDex 1.50Beta5
#
DISCID=950aaf0c
DTITLE=さまざまなアーティスト - Cover Collection
DYEAR=1900
DGENRE=
TTITLE0=I WANT YOU BACK
TTITLE1=悲しい歌
TTITLE2=嵐を呼ぶ男
TTITLE3=ベルベット・イースター
TTITLE4=彼と彼女のソネット
TTITLE5=夜明けのスキャット
TTITLE6=ANARCHY IN THE U.K.
TTITLE7=Eight Days A Week
TTITLE8=桃色片想い
TTITLE9=エレクトリック おばあちゃん
TTITLE10=Close To You
TTITLE11=悲しくてやりきれない
EXTD=
EXTT0=
EXTT1=
EXTT2=
EXTT3=
EXTT4=
EXTT5=
EXTT6=
EXTT7=
EXTT8=
EXTT9=
EXTT10=
EXTT11=
PLAYORDER=
